<svg xmlns="http://www.w3.org/2000/svg" width="23.361" height="21.805" viewBox="0 0 23.361 21.805">
  <path id="Icon_material-date-range" data-name="Icon material-date-range" d="M12.287,12.812h-2.6v2.18h2.6Zm5.191,0h-2.6v2.18h2.6Zm5.191,0h-2.6v2.18h2.6Zm2.6-7.632h-1.3V3h-2.6V5.18H10.989V3h-2.6V5.18H7.1a2.4,2.4,0,0,0-2.583,2.18L4.5,22.624A2.414,2.414,0,0,0,7.1,24.8h18.17a2.423,2.423,0,0,0,2.6-2.18V7.361A2.423,2.423,0,0,0,25.266,5.18Zm0,17.444H7.1V10.632h18.17Z" transform="translate(-4.5 -3)" fill="#ff9d00"/>
</svg>
