<svg xmlns="http://www.w3.org/2000/svg" width="23.063" height="16.701" viewBox="0 0 23.063 16.701">
  <path id="Icon_awesome-envelope" data-name="Icon awesome-envelope" d="M22.626,10.015a.272.272,0,0,1,.437.2v8.894A2.126,2.126,0,0,1,20.9,21.2H2.162A2.126,2.126,0,0,1,0,19.114v-8.89a.27.27,0,0,1,.437-.2c1.009.757,2.347,1.718,6.941,4.941.95.67,2.554,2.079,4.153,2.07,1.608.013,3.243-1.427,4.158-2.07C20.283,11.737,21.617,10.772,22.626,10.015ZM11.531,15.634c1.045.017,2.549-1.27,3.306-1.8,5.977-4.188,6.432-4.554,7.811-5.6a1.028,1.028,0,0,0,.414-.822V6.588A2.126,2.126,0,0,0,20.9,4.5H2.162A2.126,2.126,0,0,0,0,6.588v.826a1.034,1.034,0,0,0,.414.822c1.378,1.039,1.833,1.409,7.811,5.6C8.982,14.364,10.486,15.652,11.531,15.634Z" transform="translate(0 -4.5)" fill="#ff9d00"/>
</svg>
