<svg xmlns="http://www.w3.org/2000/svg" width="19.674" height="20.521" viewBox="0 0 19.674 20.521">
  <path id="Icon_ionic-md-male" data-name="Icon ionic-md-male" d="M20.779,3.375H14.725V5.743h4.45L14.129,11a6.6,6.6,0,0,0-3.944-1.312,6.963,6.963,0,0,0-6.81,7.1,6.963,6.963,0,0,0,6.81,7.1,6.963,6.963,0,0,0,6.81-7.1,7.292,7.292,0,0,0-1.258-4.114l5.041-5.263v4.642h2.27V3.375ZM10.185,21.528a4.648,4.648,0,0,1-4.54-4.736,4.648,4.648,0,0,1,4.54-4.736,4.648,4.648,0,0,1,4.54,4.736A4.648,4.648,0,0,1,10.185,21.528Z" transform="translate(-3.375 -3.375)" fill="#ff9d00"/>
</svg>
