<svg xmlns="http://www.w3.org/2000/svg" width="21.684" height="23.137" viewBox="0 0 21.684 23.137">
  <path id="Icon_awesome-phone-alt" data-name="Icon awesome-phone-alt" d="M21.066,16.35l-4.743-2.169a.976.976,0,0,0-1.186.312l-2.1,2.739a16.263,16.263,0,0,1-7.5-8.007L8.1,6.983A1.13,1.13,0,0,0,8.39,5.717L6.357.656A1.008,1.008,0,0,0,5.192.028L.788,1.112A1.072,1.072,0,0,0,0,2.169C0,13.761,8.805,23.138,19.651,23.138a1.033,1.033,0,0,0,.991-.841l1.016-4.7a1.118,1.118,0,0,0-.593-1.247Z" transform="translate(0 0)" fill="#ff9d00"/>
</svg>
