<svg xmlns="http://www.w3.org/2000/svg" width="24.091" height="27.533" viewBox="0 0 24.091 27.533">
  <path id="Icon_awesome-user-tie" data-name="Icon awesome-user-tie" d="M12.045,13.766A6.883,6.883,0,1,0,5.162,6.883,6.883,6.883,0,0,0,12.045,13.766ZM17.2,15.519l-2.57,10.292L12.906,18.5l1.721-3.011H9.464L11.185,18.5,9.464,25.812,6.894,15.519A7.215,7.215,0,0,0,0,22.714v2.237a2.582,2.582,0,0,0,2.581,2.581H21.51a2.582,2.582,0,0,0,2.581-2.581V22.714a7.215,7.215,0,0,0-6.894-7.2Z" fill="#ff9d00"/>
</svg>
