<svg xmlns="http://www.w3.org/2000/svg" width="21.919" height="24.238" viewBox="0 0 21.919 24.238">
  <path id="Icon_material-notifications-active" data-name="Icon material-notifications-active" d="M9.146,5.714,7.574,3.936a13.529,13.529,0,0,0-4.529,9.757h2.2A10.891,10.891,0,0,1,9.146,5.714Zm13.62,7.98h2.2a13.612,13.612,0,0,0-4.529-9.757L18.874,5.714a10.96,10.96,0,0,1,3.891,7.98Zm-2.166.621c0-3.816-1.8-7.01-4.947-7.856V5.614A1.764,1.764,0,0,0,14,3.75a1.764,1.764,0,0,0-1.649,1.864V6.46C9.2,7.3,7.409,10.487,7.409,14.315V20.53l-2.2,2.486v1.243H22.8V23.016L20.6,20.53ZM14,27.988a1.712,1.712,0,0,0,.44-.05,2.316,2.316,0,0,0,1.583-1.467,2.783,2.783,0,0,0,.165-.97H11.8A2.371,2.371,0,0,0,14,27.988Z" transform="translate(-3.045 -3.75)" fill="#ff9d00"/>
</svg>
