<?xml version="1.0" standalone="no"?>
<!DOCTYPE svg PUBLIC "-//W3C//DTD SVG 20010904//EN"
 "http://www.w3.org/TR/2001/REC-SVG-20010904/DTD/svg10.dtd">
<svg version="1.0" xmlns="http://www.w3.org/2000/svg"
 width="324.000000pt" height="66.000000pt" viewBox="0 0 324.000000 66.000000"
 preserveAspectRatio="xMidYMid meet">

<g transform="translate(0.000000,66.000000) scale(0.100000,-0.100000)"
fill="#000000" stroke="none">
<path d="M529 637 c-90 -34 -145 -85 -184 -170 -69 -149 -3 -333 143 -403 18
-8 59 -20 91 -26 108 -20 237 38 297 134 98 155 42 363 -119 445 -61 31 -173
40 -228 20z m203 -127 c66 -19 100 -96 64 -145 -12 -17 -12 -22 4 -43 33 -41
-2 -143 -49 -142 -12 1 -11 3 4 12 11 6 26 18 33 26 17 22 15 92 -3 112 -14
16 -14 20 1 47 20 35 14 73 -18 103 -16 15 -35 20 -74 20 l-53 0 4 -107 c2
-60 1 -132 -2 -160 l-6 -53 -64 0 c-95 0 -132 25 -133 90 0 20 7 45 15 57 13
18 13 24 -1 52 -12 25 -13 38 -4 65 14 42 44 56 123 56 34 0 69 5 77 10 19 12
36 12 82 0z m-17 -105 c0 -14 -8 -21 -27 -23 -24 -3 -28 0 -28 23 0 23 4 26
28 23 19 -2 27 -9 27 -23z m-15 -55 c0 -5 -7 -10 -16 -10 -8 0 -12 5 -9 10 3
6 10 10 16 10 5 0 9 -4 9 -10z m18 -67 c-2 -22 -9 -29 -30 -31 -16 -2 -28 1
-28 7 0 6 11 11 25 11 34 0 32 28 -2 33 -26 4 -25 4 5 6 31 1 33 -1 30 -26z
m-5 -110 c-13 -2 -33 -2 -45 0 -13 2 -3 4 22 4 25 0 35 -2 23 -4z m-302 -30
c13 -16 12 -17 -3 -4 -17 13 -22 21 -14 21 2 0 10 -8 17 -17z"/>
<path d="M525 420 c-10 -16 15 -40 41 -40 19 0 24 5 24 25 0 21 -5 25 -29 25
-17 0 -33 -5 -36 -10z"/>
<path d="M550 350 c0 -6 7 -10 15 -10 8 0 15 2 15 4 0 2 -7 6 -15 10 -8 3 -15
1 -15 -4z"/>
<path d="M552 313 c-29 -4 -33 -8 -30 -31 2 -22 9 -28 36 -30 31 -3 32 -2 32
32 0 20 -1 35 -2 34 -2 0 -18 -3 -36 -5z"/>
<path d="M670 409 c0 -4 6 -9 13 -12 8 -3 14 0 14 7 0 7 -6 13 -14 13 -7 0
-13 -4 -13 -8z"/>
<path d="M1610 565 l0 -55 40 0 c43 0 61 19 41 43 -8 10 -7 17 1 25 18 18 -9
42 -48 42 l-34 0 0 -55z m58 22 c2 -12 -3 -17 -17 -17 -15 0 -21 6 -21 21 0
25 33 22 38 -4z m7 -47 c0 -8 -10 -16 -22 -18 -18 -3 -23 2 -23 18 0 16 5 21
23 18 12 -2 22 -10 22 -18z"/>
<path d="M1720 584 c0 -50 15 -74 48 -74 16 0 33 5 40 12 14 14 16 98 2 98 -5
0 -10 -17 -10 -39 0 -39 -20 -68 -40 -56 -5 3 -10 26 -10 51 0 32 -4 44 -15
44 -11 0 -15 -11 -15 -36z"/>
<path d="M1850 565 l0 -55 35 0 c19 0 35 5 35 10 0 6 -11 10 -25 10 -23 0 -25
4 -25 45 0 25 -4 45 -10 45 -5 0 -10 -25 -10 -55z"/>
<path d="M1948 565 c5 -71 19 -71 20 0 0 36 -4 55 -11 55 -8 0 -11 -18 -9 -55z"/>
<path d="M1993 592 l-20 -28 21 -27 c29 -37 55 -36 28 0 -20 27 -20 28 0 55
27 38 -1 38 -29 0z"/>
<path d="M2100 566 l0 -56 34 0 c37 0 63 22 49 42 -4 7 -8 24 -8 38 0 22 -5
25 -37 28 l-38 3 0 -55z m58 21 c2 -12 -3 -17 -17 -17 -12 0 -21 6 -21 13 0
31 32 34 38 4z m7 -47 c0 -8 -10 -16 -22 -18 -18 -3 -23 2 -23 18 0 16 5 21
23 18 12 -2 22 -10 22 -18z"/>
<path d="M2210 577 c0 -50 13 -67 52 -67 33 0 48 24 48 74 0 25 -4 36 -15 36
-11 0 -15 -12 -15 -44 0 -25 -5 -48 -10 -51 -20 -12 -40 17 -40 56 0 22 -4 39
-10 39 -5 0 -10 -19 -10 -43z"/>
<path d="M2330 616 c0 -3 9 -21 21 -41 12 -19 18 -42 15 -50 -3 -9 0 -15 9
-15 9 0 15 10 15 25 0 14 7 37 16 51 9 13 14 28 10 32 -6 6 -18 -6 -30 -33 -3
-5 -13 0 -22 13 -15 19 -34 30 -34 18z"/>
<path d="M2450 565 l0 -55 43 2 c36 1 38 2 10 5 -43 6 -47 40 -5 46 l27 4 -27
2 c-40 2 -37 31 2 31 17 0 30 5 30 10 0 6 -18 10 -40 10 l-40 0 0 -55z"/>
<path d="M2550 566 c0 -42 4 -56 14 -56 9 0 12 7 9 20 -4 14 0 20 10 20 9 0
19 -9 22 -20 3 -11 13 -20 21 -20 10 0 12 4 7 13 -4 6 -8 30 -8 52 0 39 -1 40
-37 43 l-38 3 0 -55z m60 29 c13 -16 6 -35 -15 -35 -18 0 -28 17 -21 35 7 19
20 19 36 0z"/>
<path d="M2672 608 c-20 -20 -13 -39 18 -49 17 -6 30 -15 30 -19 0 -12 -28
-20 -45 -14 -8 4 -15 1 -15 -5 0 -6 15 -11 34 -11 26 0 36 5 41 20 8 25 -1 40
-25 40 -10 0 -20 7 -24 15 -4 11 1 15 19 15 14 0 25 5 25 10 0 14 -43 13 -58
-2z"/>
<path d="M2830 530 c0 -89 0 -90 -25 -90 -32 0 -34 -27 -2 -32 21 -3 22 -7 25
-115 2 -104 4 -113 22 -113 18 0 20 9 22 113 3 108 4 112 26 115 12 2 22 10
22 17 0 7 -10 15 -22 17 -22 3 -23 8 -26 91 -3 79 -5 87 -22 87 -18 0 -20 -7
-20 -90z"/>
<path d="M1064 441 c-11 -5 -32 -23 -47 -40 -79 -94 -19 -231 100 -231 55 0
83 14 83 41 0 16 -4 19 -17 13 -10 -4 -36 -9 -58 -12 -34 -3 -45 1 -68 24 -22
22 -27 36 -27 74 0 42 4 52 32 75 32 27 74 31 121 11 13 -6 17 -3 17 12 0 12
-4 24 -10 27 -18 11 -105 15 -126 6z"/>
<path d="M1322 432 c-70 -38 -94 -131 -52 -199 62 -103 229 -72 255 47 24 110
-104 207 -203 152z m136 -57 c53 -62 10 -165 -69 -165 -71 0 -113 63 -89 135
22 67 111 84 158 30z"/>
<path d="M1694 441 c-12 -5 -25 -14 -29 -20 -9 -16 -25 -13 -25 4 0 8 -9 15
-20 15 -19 0 -20 -7 -20 -130 0 -123 1 -130 20 -130 19 0 20 7 20 89 0 79 3
93 23 116 29 34 80 37 110 6 19 -18 22 -35 25 -116 4 -87 6 -95 24 -95 19 0
20 5 16 110 -3 95 -6 113 -24 131 -24 23 -88 34 -120 20z"/>
<path d="M2024 441 c-12 -5 -25 -14 -29 -20 -9 -16 -25 -13 -25 4 0 8 -9 15
-20 15 -19 0 -20 -7 -20 -130 0 -123 1 -130 20 -130 19 0 20 7 20 93 0 85 2
96 23 115 29 28 87 29 110 4 13 -15 17 -39 17 -115 0 -90 1 -97 20 -97 19 0
20 7 20 109 0 89 -3 113 -18 131 -19 24 -84 35 -118 21z"/>
<path d="M2304 435 c-42 -22 -64 -64 -64 -125 0 -89 45 -140 125 -140 63 0
129 46 106 74 -10 11 -17 9 -41 -15 -39 -39 -82 -39 -121 1 -20 19 -29 38 -27
52 3 22 7 23 101 24 54 1 101 4 103 7 11 11 -17 85 -40 106 -32 30 -100 37
-142 16z m116 -45 c40 -40 27 -50 -60 -50 -87 0 -95 6 -55 45 31 32 86 34 115
5z"/>
<path d="M2613 435 c-51 -22 -75 -69 -70 -139 3 -53 7 -62 40 -92 30 -28 45
-34 81 -34 62 0 96 15 96 41 0 16 -4 19 -17 13 -10 -4 -36 -9 -58 -12 -75 -7
-125 66 -95 139 21 49 93 74 141 49 16 -9 19 -7 19 10 0 38 -76 52 -137 25z"/>
<path d="M2188 75 c4 -25 -12 -35 -21 -12 -3 7 -6 5 -6 -5 -1 -12 6 -18 19
-18 15 0 20 7 20 24 0 14 -4 27 -9 30 -4 3 -6 -6 -3 -19z"/>
<path d="M2346 85 c4 -8 11 -15 16 -15 6 0 5 6 -2 15 -7 8 -14 15 -16 15 -2 0
-1 -7 2 -15z"/>
<path d="M2385 90 c-4 -6 -2 -17 5 -24 8 -11 8 -15 -2 -19 -9 -4 -7 -6 4 -6
25 -1 31 16 11 28 -16 9 -16 12 -3 21 9 6 10 10 3 10 -6 0 -15 -5 -18 -10z"/>
<path d="M2544 86 c-8 -22 3 -49 19 -43 6 2 12 14 12 27 0 27 -22 39 -31 16z
m26 -16 c0 -11 -4 -20 -10 -20 -5 0 -10 9 -10 20 0 11 5 20 10 20 6 0 10 -9
10 -20z"/>
<path d="M2760 85 c-7 -8 -9 -22 -6 -31 8 -22 41 -13 42 11 1 15 0 16 -3 3 -3
-10 -8 -18 -13 -18 -16 0 -22 21 -10 35 7 8 10 15 7 15 -2 0 -10 -7 -17 -15z"/>
<path d="M2857 94 c-10 -10 -9 -42 2 -48 4 -3 6 6 3 19 -4 24 11 35 21 15 3
-6 4 -5 3 2 -3 14 -20 21 -29 12z"/>
<path d="M2101 62 c-1 -29 1 -32 18 -22 11 5 23 16 27 23 5 9 4 9 -7 0 -19
-19 -27 -16 -32 10 -3 16 -5 13 -6 -11z"/>
<path d="M2420 81 c0 -5 8 -12 17 -15 15 -6 15 -8 3 -16 -13 -8 -12 -10 3 -10
23 0 22 22 -3 38 -11 7 -20 8 -20 3z"/>
<path d="M2810 70 c0 -11 2 -20 4 -20 2 0 6 9 9 20 3 11 1 20 -4 20 -5 0 -9
-9 -9 -20z"/>
<path d="M2301 64 c0 -11 3 -14 6 -6 3 7 2 16 -1 19 -3 4 -6 -2 -5 -13z"/>
<path d="M2324 60 c1 -8 10 -16 21 -17 15 -1 15 0 3 3 -9 3 -19 11 -21 17 -2
7 -3 5 -3 -3z"/>
<path d="M2731 64 c0 -11 3 -14 6 -6 3 7 2 16 -1 19 -3 4 -6 -2 -5 -13z"/>
<path d="M2228 48 c2 -10 6 -18 7 -18 1 0 5 8 7 18 3 11 0 19 -7 19 -7 0 -10
-8 -7 -19z"/>
</g>
</svg>
